<svg xmlns="http://www.w3.org/2000/svg" viewBox="0 0 66.03 59.94">
  <defs>
    <style>
      .cls-1 {
        fill: #80889a;
      }
    </style>
  </defs>
  <title>Recurso 25</title>
  <g id="Capa_2" data-name="Capa 2">
    <g id="Capa_1-2" data-name="Capa 1">
      <g>
        <path class="cls-1" d="M32.77,59.92c-8.2,0-16.41,0-24.61,0C2.48,59.88.1,57.61.06,52q-.12-16.69,0-33.4c0-5.78,2.3-8.35,8-7.9,5.39.43,9-1.63,12.47-5.43,6.46-7,18.6-7,25.06,0,3.52,3.82,7.12,5.82,12.49,5.4s7.87,2.08,7.91,7.5q.15,17.15,0,34.28c0,5.11-2.53,7.43-7.68,7.46C49.76,60,41.27,59.92,32.77,59.92ZM16.48,33.19C16.19,41.77,24,49.86,32.77,50.07c8.5.2,16.25-7.18,16.73-16,.48-8.57-7.14-16.68-16-17.08C24.9,16.65,16.79,24.37,16.48,33.19Z"/>
        <path class="cls-1" d="M33.12,22.18A11.37,11.37,0,1,1,21.64,33.3,11.21,11.21,0,0,1,33.12,22.18Z"/>
      </g>
    </g>
  </g>
</svg>
