<svg xmlns="http://www.w3.org/2000/svg" viewBox="0 0 52.06 58.17">
  <defs>
    <style>
      .cls-1 {
        fill: #80889a;
      }
    </style>
  </defs>
  <title>Recurso 26</title>
  <g id="Capa_2" data-name="Capa 2">
    <g id="Capa_1-2" data-name="Capa 1">
      <g>
        <path class="cls-1" d="M26.37,49.54c-7.27,0-14.56.09-21.83-.07-1.49,0-4-.74-4.21-1.57C-.12,46-.25,42.58.88,41.81c5.88-4,5-9.82,4.79-15.42C5.3,15.79,9.28,8,19.48,4a7,7,0,0,0,2-1.76c2.91-2.93,6.29-2.93,9.25-.11a13.48,13.48,0,0,0,3.39,2.36C42,8.24,46.21,14.39,46.52,23.15a46.26,46.26,0,0,1,0,6.23c-.46,4.63.39,8.45,4.24,11.74,1.37,1.18,1.48,4.49,1.15,6.68-.12.8-3.14,1.62-4.86,1.67C40.16,49.65,33.26,49.54,26.37,49.54Z"/>
        <path class="cls-1" d="M34.33,52.63c-1.57,4.12-4.59,5.59-8.43,5.54S19.34,56.6,18,52.63Z"/>
      </g>
    </g>
  </g>
</svg>
