<svg xmlns="http://www.w3.org/2000/svg" viewBox="0 0 57.14 57.14">
  <defs>
    <style>
      .cls-1 {
        fill: #80889a;
      }

      .cls-2 {
        fill: #fff;
      }

      .cls-3 {
        fill: none;
        stroke: #fff;
        stroke-miterlimit: 10;
      }
    </style>
  </defs>
  <title>Recurso 29</title>
  <g id="Capa_2" data-name="Capa 2">
    <g id="Capa_1-2" data-name="Capa 1">
      <g>
        <circle class="cls-1" cx="28.57" cy="28.57" r="28.57"/>
        <g>
          <path class="cls-2" d="M46.29,14.8a2.5,2.5,0,0,1,.1,3.54L23.85,42.24A2.49,2.49,0,0,1,22,43h-.1a2.51,2.51,0,0,1-1.85-.93L10.61,30.33A2.5,2.5,0,0,1,14.5,27.2l7.68,9.52L42.76,14.91A2.5,2.5,0,0,1,46.29,14.8Z"/>
          <path class="cls-3" d="M22,43h-.1a2.51,2.51,0,0,1-1.85-.93L10.61,30.33A2.5,2.5,0,0,1,14.5,27.2l7.68,9.52L42.76,14.91a2.5,2.5,0,1,1,3.63,3.43L23.85,42.24A2.49,2.49,0,0,1,22,43Z"/>
        </g>
      </g>
    </g>
  </g>
</svg>
