<svg xmlns="http://www.w3.org/2000/svg" viewBox="0 0 58.01 58.17">
  <defs>
    <style>
      .cls-1 {
        fill: #3a57e8;
      }
    </style>
  </defs>
  <title>Correo</title>
  <g id="Capa_2" data-name="Capa 2">
    <g id="Capa_1-2" data-name="Capa 1">
      <path class="cls-1" d="M14.5,55.09V51.66a3,3,0,0,0-3-3.08c-1.7,0-3.31,0-4.91,0C2,48.32.13,46.53.09,41.86q-.18-17.59,0-35.2C.11,2.26,2,.13,6.26.09q22.8-.18,45.59,0c3.87,0,6,2.24,6,6.38q.24,18,0,36c-.05,4-2.15,5.88-6.33,6-4.88.17-9.8-.17-14.67.16a16.92,16.92,0,0,0-7.17,2.14c-3.57,2.08-7,4.4-10.68,6.87A2.94,2.94,0,0,1,14.5,55.09Z"/>
    </g>
  </g>
</svg>
