<svg xmlns="http://www.w3.org/2000/svg" viewBox="0 0 57.14 57.14">
  <defs>
    <style>
      .cls-1 {
        fill: #80889a;
      }

      .cls-2 {
        fill: #fff;
      }
    </style>
  </defs>
  <title>Recurso 30</title>
  <g id="Capa_2" data-name="Capa 2">
    <g id="Capa_1-2" data-name="Capa 1">
      <g>
        <circle class="cls-1" cx="28.57" cy="28.57" r="28.57"/>
        <g>
          <g>
            <line class="cls-2" x1="16.09" y1="41.44" x2="40.38" y2="15.69"/>
            <path class="cls-2" d="M16.09,43.94a2.49,2.49,0,0,1-1.82-4.21L38.56,14a2.5,2.5,0,1,1,3.64,3.43L17.91,43.16A2.5,2.5,0,0,1,16.09,43.94Z"/>
          </g>
          <g>
            <line class="cls-2" x1="16.09" y1="15.69" x2="40.38" y2="41.44"/>
            <path class="cls-2" d="M40.38,43.94a2.48,2.48,0,0,1-1.82-.78L14.27,17.41A2.5,2.5,0,1,1,17.91,14L42.2,39.73a2.5,2.5,0,0,1-.11,3.53A2.46,2.46,0,0,1,40.38,43.94Z"/>
          </g>
        </g>
      </g>
    </g>
  </g>
</svg>
