<svg xmlns="http://www.w3.org/2000/svg" viewBox="0 0 56.72 56.74">
  <defs>
    <style>
      .cls-1 {
        fill: #3a57e8;
      }
    </style>
  </defs>
  <title>Lapiz</title>
  <g id="Capa_2" data-name="Capa 2">
    <g id="Capa_1-2" data-name="Capa 1">
      <g>
        <path class="cls-1" d="M7.81,56.73H2.93A2.66,2.66,0,0,1,0,53.81C0,50.53,0,47.25,0,44a3.16,3.16,0,0,1,1-2.34Q15.65,27,30.31,12.31c.92-.92,1.5-.91,2.43,0L44.36,23.94c1,1,1,1.55,0,2.52L15.19,55.67a3.36,3.36,0,0,1-2.61,1.07C11,56.71,9.4,56.73,7.81,56.73Z"/>
        <path class="cls-1" d="M56.72,10.84a7.63,7.63,0,0,1-2.16,5.43c-1.58,1.64-3.21,3.24-4.83,4.84a1.3,1.3,0,0,1-2.08,0q-6-6-12-12a1.32,1.32,0,0,1,0-2.12c1.58-1.59,3.15-3.18,4.75-4.74a7.79,7.79,0,0,1,10.91,0q1.64,1.59,3.24,3.24A7.64,7.64,0,0,1,56.72,10.84Z"/>
      </g>
    </g>
  </g>
</svg>
